<svg version="1.1" xmlns="http://www.w3.org/2000/svg" xmlns:xlink="http://www.w3.org/1999/xlink" width="102.72064" height="56.87083" viewBox="0,0,102.72064,56.87083"><g transform="translate(-190.09887,-151.32647)"><g data-paper-data="{&quot;isPaintingLayer&quot;:true}" fill-rule="nonzero" stroke-linejoin="miter" stroke-miterlimit="10" stroke-dasharray="" stroke-dashoffset="0" style="mix-blend-mode: normal"><text transform="translate(221.55027,181.28169) scale(0.6118,0.6118)" font-size="40" xml:space="preserve" fill="#ff8324" fill-rule="nonzero" stroke="none" stroke-width="1" stroke-linecap="butt" stroke-linejoin="miter" stroke-miterlimit="10" stroke-dasharray="" stroke-dashoffset="0" font-family="Sans Serif" font-weight="normal" text-anchor="start" style="mix-blend-mode: normal"><tspan x="0" dy="0"></tspan></text><g><path d="M200.86532,155.96991c2.56449,1.25271 4.06975,1.86956 3.39964,2.62177c-0.67012,0.7522 -3.20069,0.78793 -4.95583,-0.77567c-1.75513,-1.5636 -3.16113,-2.91892 -4.72823,-4.22426c-0.77405,-0.64476 4.41367,1.38767 6.28441,2.37817z" fill="#266714" stroke="none" stroke-width="0" stroke-linecap="butt"/><path d="M203.10252,152.32647c0,0 1.05382,2.42161 1.19297,3.39693c0.19836,1.39031 0.65185,4.91869 0.65185,4.91869" fill="none" stroke="#266714" stroke-width="2" stroke-linecap="round"/><g stroke-linecap="butt"><path d="M190.34888,173.81957c0,-8.36909 6.7845,-15.1536 15.15359,-15.1536c8.3691,0 15.1536,6.78451 15.1536,15.1536c0,8.3691 -6.78451,15.1536 -15.1536,15.1536c-8.3691,0 -15.15359,-6.78449 -15.15359,-15.1536z" fill="#ff7912" stroke="#c95700" stroke-width="0.5"/><path d="M216.74261,167.34282c1.60478,3.54489 2.11783,11.11672 0.08599,12.03654c-2.03184,0.91981 -2.4022,-4.98885 -4.00699,-8.53374c-1.60478,-3.54489 -5.55474,-8.71087 -3.52291,-9.63069c2.03183,-0.91981 5.83912,2.583 7.44391,6.1279z" fill="#ffac6c" stroke="none" stroke-width="0"/></g><path d="M203.80279,154.65196c-0.24671,-1.18264 -0.95186,-2.72663 -0.54769,-2.84361c0.25707,-0.07441 0.67715,0.5961 1.01235,1.39831c0.19181,0.45904 0.35583,0.9612 0.44562,1.39162c0.24671,1.18264 0.82804,3.46613 0.32916,3.32239c-0.57836,-0.30865 -0.99273,-2.08608 -1.23944,-3.26871z" fill="#65ba4d" stroke="none" stroke-width="0" stroke-linecap="butt"/></g><text transform="translate(235.56946,201.96582) scale(0.60046,0.51929)" font-size="40" xml:space="preserve" fill="#94ba82" fill-rule="nonzero" stroke="none" stroke-width="1" stroke-linecap="butt" stroke-linejoin="miter" stroke-miterlimit="10" stroke-dasharray="" stroke-dashoffset="0" font-family="Sans Serif" font-weight="normal" text-anchor="start" style="mix-blend-mode: normal"><tspan x="0" dy="0">Chat</tspan></text><path d="M243.74645,185.61064c1.56426,1.05138 2.49313,1.59103 1.98675,2.02248c-0.50638,0.43144 -2.16497,0.22595 -3.17167,-0.95559c-1.0067,-1.18155 -2.0756,-2.04 -2.71091,-3.19089c0.01781,-0.64704 2.76167,1.3069 3.89582,2.12401z" fill="#266714" stroke="none" stroke-width="0" stroke-linecap="butt"/><path d="M242.78203,185.93608c-0.59765,-0.52845 -1.54184,-1.3 -1.37414,-1.52155c0.10667,-0.14092 0.55498,0.28095 1.04923,0.57312c0.28282,0.16718 0.56795,0.36817 0.78547,0.5605c0.59765,0.52845 1.80721,1.50737 1.48641,1.62833c-0.428,0.06509 -1.34931,-0.71195 -1.94696,-1.2404z" fill="#65ba4d" stroke="none" stroke-width="0" stroke-linecap="butt"/><path d="M225.77395,181.27596l-2.60992,-0.02507c0,0 -0.02772,-4.3341 -0.02772,-6.73702c0,-4.24994 0.03903,-6.38628 0.03903,-6.38628l1.98784,0.01408l0.43985,2.40151c0,0 0.75915,-1.35715 2.01345,-2.11286c0.42696,-0.25725 1.05952,-0.50633 1.66815,-0.56259c0.92972,-0.08595 1.80362,0.11162 1.80362,0.11162l-0.23004,2.36605c0,0 -0.74667,-0.1986 -1.47307,-0.16497c-0.64632,0.02992 -1.23502,0.26288 -1.90636,0.68827c-1.08922,0.69018 -1.77713,2.76259 -1.68177,2.94227c0.04977,0.09378 -0.02307,7.46501 -0.02307,7.46501z" fill="#ff8324" stroke="none" stroke-width="0" stroke-linecap="butt"/><path d="M243.12742,174.94612c0,2.07459 0.07935,6.33185 0.07935,6.33185l-1.80655,-0.01787l-0.62268,-1.83447c0,0 -1.73641,2.06192 -3.41512,2.06316c-0.8936,0.00066 -2.22119,0.16183 -3.01415,-0.23959c-0.43618,-0.22081 -0.80626,-0.48117 -1.0771,-0.79014c-0.26672,-0.30427 -0.5213,-0.55611 -0.64578,-0.79951c-0.10549,-0.20629 -0.09821,-0.42585 -0.12715,-0.46469c-0.29483,-0.39567 -0.40771,-1.72692 -0.1467,-2.9143c0.13043,-0.59334 0.84196,-1.61077 2.06906,-2.19195c0.49629,-0.23505 1.35643,-0.4828 2.27695,-0.61691c1.79662,-0.26174 3.82317,-0.28339 3.82317,-0.28339c0,0 -0.0479,-1.20703 -0.09929,-1.60632c-0.01802,-0.14005 -0.49703,-1.28974 -1.13712,-1.39548c-0.55124,-0.09107 -1.44142,-0.28924 -2.12193,-0.20408c-1.49904,0.1876 -2.77388,0.86875 -2.77388,0.86875l-0.85788,-1.89877c0,0 3.52991,-1.54324 5.9949,-0.96933c1.22075,0.28422 2.11051,0.72376 2.86014,1.65468c1.03814,1.28921 0.74175,3.68592 0.74175,5.30836zM235.61481,175.80946c-0.97808,0.85188 -0.79274,2.80956 0.20184,3.34082c0.13556,0.1328 1.65846,0.54605 2.85379,0.08728c0.30357,-0.11651 0.60017,-0.24681 0.83095,-0.50203c0.02965,-0.03278 0.48631,-0.37645 0.73067,-0.78698c0.22552,-0.37887 0.25394,-0.82143 0.309,-0.97378c0.13449,-0.3721 0.12694,-0.74904 0.12172,-1.07481c-0.0087,-0.54241 -0.09139,-0.94292 -0.09139,-0.94292c0,0 -1.90741,-0.07519 -2.78129,0.07509c-0.41187,0.07083 -0.8462,0.11002 -1.31207,0.29824c-0.39751,0.16061 -0.86322,0.47908 -0.86322,0.47908z" fill="#ff8324" stroke="none" stroke-width="0" stroke-linecap="butt"/><path d="M247.17258,181.24004l0.03053,-13.12936l1.94597,-0.01964l0.41421,1.75562l0.19651,0.01877c0,0 1.09445,-2.23481 4.52083,-2.00163c0.06181,0.00421 0.13818,0.01666 0.22756,0.02239c0.01901,0.00122 0.03838,0.00298 0.05814,0.00435c1.44053,0.09942 2.55029,0.62917 3.1928,1.61382c0.47028,0.72071 0.57621,1.1858 0.80732,2.23487c0.0046,0.02087 0.01187,0.04156 0.01394,0.06331c0.12188,1.27575 -0.05971,2.39538 -0.0361,3.60256c0.05971,3.05281 0.00968,5.83495 0.00968,5.83495l-2.51021,0.0234l-0.08111,-8.93999c0,0 -0.02846,-2.04823 -2.45968,-2.34641c-0.86472,-0.10605 -2.63469,0.10397 -3.18783,1.74154c-0.34835,1.0313 -0.54867,2.32064 -0.55821,3.63283c-0.02129,2.93041 -0.00691,5.87416 -0.00691,5.87416z" fill="#ff8324" stroke="none" stroke-width="0" stroke-linecap="butt"/><path d="M260.68535,176.07167c-0.54021,-5.252 3.27947,-9.94753 8.53147,-10.48773c1.32995,-0.1368 3.17383,0.17412 4.57045,0.69083c1.15359,0.42681 2.061,0.96908 2.061,0.96908l0.06372,2.32076c0,0 -1.51633,-0.63854 -3.15367,-0.96452c-1.86964,-0.37222 -3.93934,-0.40924 -4.8244,0.12041c-1.28159,0.76694 -2.3084,1.5823 -2.92574,2.62381c-2.04253,3.44597 -0.75697,8.57753 1.66312,9.30759c1.36395,0.41145 4.08635,0.82842 5.8197,0.29178c0.58789,-0.18201 1.9227,-1.0254 2.90368,-2.04158c0.78886,-0.81716 0.82563,-2.29348 0.97344,-2.70549c0.03286,-0.0916 -4.00305,0.04933 -4.00305,0.04933l-0.01163,-2.07376c0,0 6.42651,-0.11489 6.45323,0.02888c0.94018,5.05827 -3.09576,9.9353 -7.63359,10.40205c-5.252,0.5402 -9.94752,-3.27946 -10.48773,-8.53146z" fill="#ff8324" stroke="none" stroke-width="0" stroke-linecap="butt"/><path d="M271.1898,163.80961c-1.05138,1.56426 -1.59103,2.49313 -2.02248,1.98675c-0.43144,-0.50638 -0.22595,-2.16497 0.95559,-3.17167c1.18155,-1.0067 2.04,-2.0756 3.19089,-2.71091c0.64704,0.01781 -1.3069,2.76167 -2.12401,3.89582z" fill="#266714" stroke="none" stroke-width="0" stroke-linecap="butt"/><path d="M270.93921,162.20539c0.52845,-0.59765 1.3,-1.54184 1.52155,-1.37414c0.14092,0.10667 -0.28095,0.55498 -0.57312,1.04923c-0.16718,0.28282 -0.36817,0.56795 -0.5605,0.78547c-0.52845,0.59765 -1.50737,1.80721 -1.62833,1.48641c-0.06509,-0.428 0.71195,-1.34931 1.2404,-1.94696z" fill="#65ba4d" stroke="none" stroke-width="0" stroke-linecap="butt"/><path d="M292.79496,175.24047l-8.77737,0.02208c0,0 -0.15629,1.47652 0.39758,2.35418c0.41928,0.66439 0.88524,1.32275 1.96507,1.59115c0.22773,0.0566 0.44134,0.15381 0.72332,0.22322c0.18793,0.04626 0.42372,0.09766 0.65019,0.05237c0.63809,-0.12762 1.47198,-0.10443 2.12849,-0.226c1.27384,-0.23588 2.19652,-0.6445 2.19652,-0.6445l0.05506,2.04244c0,0 -3.16974,1.39208 -5.96666,0.75308c-1.29675,-0.29626 -2.6078,-1.02308 -3.45278,-1.97187c-0.98402,-1.10493 -1.40324,-2.49968 -1.4734,-3.69244c-0.15741,-2.67619 0.50075,-4.87884 1.96357,-6.3474c1.04933,-1.05345 2.49285,-1.55463 3.92359,-1.55463c1.60953,0 3.20179,0.60474 4.3041,1.90616c1.6843,1.43669 1.36271,5.49216 1.36271,5.49216zM283.89177,173.24619c-0.26504,-0.00763 3.71213,0.11013 3.71213,0.11013l2.66934,0.01936c0,0 -0.21138,-1.37376 -0.51116,-2.03681c-0.46277,-1.02354 -1.23736,-1.50002 -2.55592,-1.51904c-0.51852,-0.00748 -1.62314,0.18326 -2.36778,1.10297c-0.63016,0.77832 -0.95407,2.30709 -0.94662,2.32338z" fill="#ff8324" stroke="none" stroke-width="0" stroke-linecap="butt"/></g></g></svg>